<svg width="2268" height="664" viewBox="0 0 2268 664" fill="none" xmlns="http://www.w3.org/2000/svg">
<rect width="2267.22" height="664" fill="white"/>
<path d="M475.043 232.233H443.21C438.254 232.236 433.346 231.293 428.768 229.458C424.189 227.623 420.029 224.933 416.526 221.54C413.022 218.149 410.243 214.122 408.347 209.691C406.451 205.26 405.476 200.511 405.477 195.715V164.895C405.477 163.201 405.132 161.523 404.461 159.958C403.791 158.393 402.808 156.971 401.57 155.773C400.331 154.575 398.861 153.626 397.243 152.978C395.625 152.331 393.891 151.999 392.14 152H344.883C343.174 151.999 341.482 152.323 339.903 152.955C338.324 153.587 336.89 154.515 335.682 155.684C334.473 156.853 333.515 158.242 332.862 159.77C332.209 161.298 331.874 162.935 331.875 164.589V210.506C331.874 212.177 332.212 213.831 332.872 215.375C333.531 216.919 334.499 218.322 335.719 219.504C336.939 220.686 338.387 221.623 339.982 222.263C341.577 222.902 343.286 223.232 345.012 223.232H377.045C387.053 223.231 396.651 227.078 403.729 233.925C410.804 240.775 414.778 250.064 414.778 259.75V290.661C414.778 294.06 416.173 297.319 418.657 299.723C421.14 302.126 424.508 303.476 428.02 303.476H475.196C478.693 303.473 482.047 302.127 484.519 299.732C486.991 297.337 488.379 294.091 488.379 290.706V245.186C488.384 243.487 488.043 241.805 487.375 240.234C486.707 238.664 485.725 237.236 484.487 236.033C483.248 234.83 481.776 233.875 480.156 233.223C478.535 232.571 476.798 232.235 475.043 232.233Z" fill="#FF7714"/>
<path d="M475.36 328.053H427.915C424.428 328.053 421.083 329.394 418.617 331.78C416.151 334.166 414.766 337.403 414.766 340.778V371.779C414.764 381.465 410.79 390.753 403.717 397.604C396.639 404.452 387.041 408.298 377.033 408.298H345.164C341.655 408.298 338.29 409.647 335.809 412.048C333.328 414.45 331.934 417.706 331.934 421.102V466.77C331.934 470.154 333.323 473.399 335.795 475.792C338.268 478.185 341.621 479.529 345.117 479.529H392.082C393.835 479.529 395.57 479.195 397.19 478.546C398.809 477.897 400.281 476.945 401.52 475.746C402.76 474.546 403.743 473.122 404.414 471.555C405.084 469.987 405.43 468.308 405.43 466.611V435.803C405.432 426.118 409.406 416.83 416.479 409.978C423.557 403.131 433.155 399.284 443.163 399.284H475.008C478.542 399.284 481.931 397.926 484.43 395.507C486.929 393.089 488.333 389.809 488.333 386.389V340.642C488.333 337.309 486.967 334.112 484.535 331.752C482.103 329.392 478.804 328.062 475.36 328.053Z" fill="#FF7714"/>
<path d="M293.368 408.252H261.335C251.331 408.252 241.736 404.405 234.662 397.559C231.157 394.168 228.375 390.143 226.477 385.711C224.58 381.28 223.602 376.531 223.602 371.734V340.812C223.602 337.416 222.208 334.159 219.726 331.758C217.245 329.356 213.88 328.007 210.371 328.007H163.184C161.452 328.007 159.738 328.337 158.139 328.979C156.539 329.62 155.086 330.56 153.861 331.744C152.637 332.929 151.666 334.336 151.004 335.884C150.341 337.432 150 339.091 150 340.767V386.321C150 388.017 150.345 389.697 151.016 391.264C151.687 392.832 152.67 394.256 153.91 395.455C155.149 396.655 156.62 397.607 158.24 398.256C159.859 398.905 161.595 399.239 163.348 399.239H195.181C205.189 399.241 214.786 403.087 221.866 409.932C228.938 416.784 232.912 426.072 232.915 435.757V466.543C232.918 469.962 234.323 473.24 236.821 475.658C239.319 478.076 242.706 479.436 246.239 479.439H293.555C297.004 479.436 300.311 478.108 302.75 475.748C305.189 473.388 306.56 470.187 306.563 466.85V420.921C306.548 417.548 305.149 414.319 302.675 411.943C300.2 409.568 296.853 408.24 293.368 408.252Z" fill="#FF7714"/>
<path d="M163.007 303.476H210.463C212.19 303.476 213.899 303.147 215.493 302.508C217.088 301.868 218.537 300.93 219.757 299.749C220.977 298.567 221.944 297.164 222.604 295.62C223.263 294.076 223.602 292.422 223.6 290.751V259.75C223.6 254.953 224.576 250.203 226.474 245.772C228.372 241.34 231.154 237.315 234.661 233.925C241.735 227.078 251.329 223.232 261.334 223.232H293.284C296.793 223.232 300.159 221.883 302.64 219.481C305.121 217.08 306.515 213.823 306.515 210.427V164.759C306.515 161.375 305.126 158.13 302.654 155.737C300.181 153.344 296.828 152 293.331 152H246.261C244.509 151.999 242.774 152.331 241.154 152.979C239.535 153.627 238.063 154.578 236.824 155.776C235.584 156.975 234.601 158.398 233.93 159.965C233.259 161.532 232.913 163.211 232.913 164.907V195.715C232.914 200.511 231.939 205.26 230.043 209.691C228.147 214.122 225.368 218.149 221.864 221.54C218.36 224.932 214.2 227.622 209.622 229.456C205.043 231.291 200.136 232.235 195.18 232.233H163.358C159.823 232.236 156.434 233.598 153.936 236.018C151.437 238.438 150.034 241.719 150.034 245.14V290.876C150.034 294.21 151.399 297.408 153.831 299.77C156.262 302.132 159.562 303.464 163.007 303.476Z" fill="#FF7714"/>
<path d="M351.084 265.548H290.228C277.58 265.548 267.326 275.472 267.326 287.713V346.609C267.326 358.85 277.58 368.774 290.228 368.774H351.084C363.732 368.774 373.986 358.85 373.986 346.609V287.713C373.986 275.472 363.732 265.548 351.084 265.548Z" fill="#FF7714"/>
<path d="M2116.76 221.433H2068.23L2067.78 171.538H2116.76V221.433ZM2117.22 475.446H2068.23V248.649H2117.22V475.446Z" fill="#FF7714"/>
<path d="M1894.78 479.98C1854.41 479.98 1823.11 459.115 1823.11 419.652C1823.11 382.457 1850.32 362.953 1898.4 356.149L1977.33 344.355V332.108C1977.33 298.543 1961.91 288.563 1926.53 288.563C1890.69 288.563 1876.63 299.903 1876.63 329.841V336.644H1829.46V332.108C1829.46 281.76 1868.92 245.472 1929.25 245.472C1992.3 245.472 2024.05 283.574 2024.05 338.459V475.444H1978.69V440.064H1976.42C1963.27 461.383 1937.41 479.98 1894.78 479.98ZM1870.74 416.023C1870.74 433.714 1882.08 440.971 1910.65 440.971C1942.4 440.971 1977.33 428.27 1977.33 382.911V378.829L1905.66 389.715C1879.81 393.344 1870.74 399.24 1870.74 416.023Z" fill="#FF7714"/>
<path d="M1794.43 475.445H1732.29V405.138H1794.43V475.445Z" fill="#FF7714"/>
<path d="M1602.43 479.98C1528.04 479.98 1493.12 432.806 1493.12 362.499C1493.12 292.646 1534.85 245.472 1601.98 245.472C1662.76 245.472 1705.4 281.76 1705.4 343.448C1705.4 355.242 1704.04 367.489 1702.68 374.293H1538.93C1540.74 415.57 1555.71 436.435 1602.89 436.435C1640.54 436.435 1655.05 423.734 1655.05 403.323V399.694H1703.58V403.776C1703.58 450.043 1663.21 479.98 1602.43 479.98ZM1601.07 286.749C1558.43 286.749 1542.11 306.707 1539.38 341.634H1658.68C1660.49 303.078 1639.63 286.749 1601.07 286.749Z" fill="#FF7714"/>
<path d="M1361.04 480.434C1290.73 480.434 1250.82 432.806 1250.82 362.953C1250.82 292.646 1292.09 245.472 1362.85 245.472C1422.27 245.472 1463.1 282.213 1463.1 336.191V340.273H1414.56V337.552C1414.56 304.439 1397.33 289.471 1359.68 289.471C1316.13 289.471 1299.35 313.965 1299.35 362.953C1299.35 411.941 1316.13 435.981 1359.68 435.981C1397.33 435.981 1414.56 421.466 1414.56 388.354V385.633H1463.1V389.715C1463.1 443.239 1421.82 480.434 1361.04 480.434Z" fill="#FF7714"/>
<path d="M1216.67 221.433H1168.13L1167.68 171.538H1216.67V221.433ZM1217.12 475.446H1168.13V248.649H1217.12V475.446Z" fill="#FF7714"/>
<path d="M960.213 527.449H911.678V250.008H956.131V287.203H958.398C968.831 260.894 994.686 245.472 1033.7 245.472C1097.2 245.472 1132.12 291.285 1132.12 362.953C1132.12 434.167 1098.11 479.98 1036.87 479.98C996.5 479.98 971.553 461.383 961.574 440.517H960.213V527.449ZM960.213 382.911C960.213 420.559 981.985 438.249 1021.9 438.249C1064.99 438.249 1083.14 418.291 1083.14 362.953C1083.14 307.161 1065.45 287.203 1021.9 287.203C981.985 287.203 960.213 304.893 960.213 342.541V382.911Z" fill="#FF7714"/>
<path d="M764.025 479.98C676.481 479.98 638.38 439.61 638.38 381.096V373.385H686.46V378.375C686.46 416.023 702.336 435.074 765.839 435.074C810.745 435.074 827.075 422.827 827.075 394.704C827.075 367.035 818.003 357.056 771.283 347.53L719.573 337.098C667.41 327.119 639.287 301.717 639.287 253.636C639.287 208.731 674.213 167 752.685 167C836.6 167 870.166 214.174 870.166 268.151V273.595H822.085V268.605C822.085 231.41 805.756 211.906 751.324 211.906C706.419 211.906 688.275 224.606 688.275 251.368C688.275 279.038 700.522 286.749 742.253 295.821L793.962 306.707C851.115 318.5 876.063 347.077 876.063 392.89C876.063 440.517 841.59 479.98 764.025 479.98Z" fill="#FF7714"/>
</svg>
