<svg width="664" height="664" viewBox="0 0 664 664" fill="none" xmlns="http://www.w3.org/2000/svg">
<rect width="664" height="664" fill="white"/>
<path d="M494.895 240.964H461.623C456.444 240.967 451.314 239.939 446.529 237.939C441.743 235.939 437.395 233.007 433.733 229.31C430.071 225.614 427.167 221.226 425.185 216.396C423.204 211.567 422.185 206.391 422.185 201.165V167.576C422.185 165.729 421.825 163.901 421.124 162.195C420.423 160.489 419.396 158.939 418.102 157.634C416.808 156.329 415.271 155.293 413.58 154.588C411.889 153.882 410.076 153.52 408.247 153.522H358.854C357.068 153.52 355.299 153.874 353.649 154.563C351.999 155.252 350.5 156.262 349.237 157.537C347.974 158.811 346.973 160.324 346.29 161.989C345.607 163.655 345.257 165.44 345.258 167.242V217.285C345.257 219.105 345.611 220.909 346.3 222.591C346.989 224.274 348.001 225.803 349.276 227.091C350.551 228.379 352.065 229.4 353.732 230.097C355.398 230.794 357.185 231.153 358.989 231.153H392.469C402.929 231.153 412.961 235.345 420.359 242.807C427.753 250.273 431.907 260.397 431.907 270.952V304.64C431.907 308.345 433.365 311.897 435.961 314.517C438.556 317.136 442.077 318.608 445.748 318.608H495.054C498.71 318.604 502.215 317.137 504.799 314.527C507.382 311.917 508.834 308.379 508.834 304.69V255.08C508.839 253.229 508.482 251.395 507.783 249.684C507.085 247.972 506.06 246.416 504.765 245.105C503.47 243.794 501.932 242.753 500.238 242.043C498.545 241.332 496.729 240.965 494.895 240.964Z" fill="#FF7714"/>
<path d="M495.226 345.392H445.637C441.993 345.392 438.497 346.853 435.92 349.454C433.342 352.055 431.895 355.583 431.895 359.261V393.047C431.892 403.603 427.739 413.725 420.346 421.193C412.948 428.655 402.917 432.847 392.457 432.847H359.148C355.481 432.847 351.963 434.317 349.37 436.934C346.777 439.551 345.32 443.101 345.32 446.802V496.573C345.32 500.261 346.771 503.798 349.356 506.405C351.94 509.013 355.445 510.478 359.099 510.478H408.185C410.017 510.478 411.831 510.114 413.524 509.407C415.217 508.699 416.755 507.662 418.05 506.355C419.346 505.047 420.373 503.495 421.074 501.787C421.775 500.079 422.136 498.248 422.136 496.4V462.823C422.139 452.268 426.292 442.145 433.685 434.678C441.083 427.216 451.114 423.024 461.574 423.024H494.858C498.552 423.024 502.094 421.543 504.706 418.907C507.318 416.272 508.785 412.697 508.785 408.97V359.112C508.785 355.48 507.357 351.996 504.816 349.424C502.274 346.852 498.825 345.402 495.226 345.392Z" fill="#FF7714"/>
<path d="M305.011 432.797H271.531C261.075 432.797 251.047 428.605 243.654 421.143C239.989 417.448 237.083 413.06 235.099 408.231C233.115 403.402 232.094 398.226 232.093 392.998V359.298C232.093 355.597 230.636 352.047 228.043 349.43C225.45 346.813 221.932 345.343 218.265 345.343H168.946C167.136 345.343 165.344 345.702 163.672 346.401C162.001 347.1 160.482 348.124 159.202 349.416C157.923 350.707 156.908 352.24 156.215 353.927C155.523 355.614 155.166 357.422 155.166 359.248V408.895C155.166 410.744 155.527 412.575 156.228 414.283C156.929 415.991 157.957 417.543 159.252 418.851C160.548 420.158 162.086 421.195 163.778 421.903C165.471 422.61 167.285 422.974 169.117 422.974H202.389C212.848 422.977 222.879 427.168 230.279 434.628C237.671 442.096 241.825 452.218 241.827 462.774V496.325C241.83 500.052 243.299 503.624 245.91 506.259C248.521 508.894 252.061 510.376 255.754 510.379H305.207C308.812 510.376 312.268 508.929 314.817 506.357C317.366 503.785 318.8 500.297 318.803 496.659V446.604C318.787 442.928 317.325 439.409 314.739 436.82C312.153 434.231 308.654 432.784 305.011 432.797Z" fill="#FF7714"/>
<path d="M168.76 318.608H218.361C220.166 318.608 221.952 318.249 223.619 317.552C225.285 316.855 226.799 315.833 228.075 314.545C229.35 313.257 230.361 311.728 231.05 310.046C231.74 308.363 232.093 306.56 232.092 304.739V270.952C232.091 265.725 233.112 260.548 235.096 255.718C237.079 250.889 239.987 246.502 243.652 242.807C251.046 235.346 261.074 231.154 271.53 231.153H304.924C308.592 231.153 312.109 229.683 314.702 227.066C317.296 224.449 318.753 220.899 318.753 217.198V167.427C318.753 163.739 317.301 160.202 314.717 157.595C312.133 154.987 308.628 153.522 304.973 153.522H255.777C253.945 153.52 252.131 153.883 250.439 154.589C248.746 155.295 247.208 156.331 245.913 157.637C244.617 158.944 243.589 160.495 242.888 162.202C242.187 163.91 241.826 165.74 241.826 167.588V201.165C241.826 206.391 240.807 211.567 238.826 216.396C236.844 221.226 233.939 225.614 230.277 229.31C226.615 233.006 222.267 235.938 217.482 237.937C212.696 239.937 207.567 240.965 202.388 240.964H169.128C165.434 240.967 161.891 242.451 159.28 245.088C156.669 247.726 155.202 251.302 155.202 255.03V304.875C155.202 308.509 156.629 311.994 159.17 314.568C161.711 317.142 165.16 318.595 168.76 318.608Z" fill="#FF7714"/>
<path d="M365.335 277.272H301.73C288.51 277.272 277.793 288.087 277.793 301.428V365.616C277.793 378.957 288.51 389.772 301.73 389.772H365.335C378.555 389.772 389.272 378.957 389.272 365.616V301.428C389.272 288.087 378.555 277.272 365.335 277.272Z" fill="#FF7714"/>
</svg>
